<svg width="72" height="44" viewBox="0 0 72 44" fill="none" xmlns="http://www.w3.org/2000/svg">
<path d="M69.1747 19.5113C65.796 17.1742 60.1214 17.9611 56.3935 18.7776C53.8491 19.3338 51.3461 20.0557 48.8313 20.7243C46.1034 21.4462 45.133 21.8189 42.7129 20.2391C38.8075 17.6889 34.9317 15.0796 31.05 12.4879C37.9554 10.0916 44.8608 7.7899 51.8727 5.70123C55.2456 4.69535 58.8728 3.18062 62.3699 2.76643C64.6599 2.50017 64.8019 3.47646 65.9557 5.21604C66.7072 6.35209 69.1866 8.55319 69.867 5.81365C70.2635 4.21608 68.1215 2.60667 67.009 1.80197C62.364 -1.55884 56.5296 0.926267 51.5946 2.50017C45.2573 4.52968 38.9614 6.68936 32.6477 8.8017C31.2571 9.26914 29.1033 10.3934 27.6239 10.1153C26.4464 9.89633 25.2156 8.86678 24.0795 8.36976C21.2333 7.13312 18.1682 6.51185 15.1327 5.93791C12.0735 5.36396 9.07344 4.89061 5.96689 5.47047C3.97279 5.84323 0.428368 6.51185 0.0733344 8.89637C-0.565726 13.1743 5.26274 15.831 8.6474 15.9375C11.7658 16.0381 15.0735 15.3517 18.1623 14.9494C20.8073 14.6062 24.1565 13.5826 26.8251 13.8488C29.2926 14.0973 31.6417 16.6239 33.6181 18.0676C36.1862 19.9433 38.7483 21.8367 41.3105 23.7183C38.8844 24.807 36.4643 25.9194 34.0264 26.9903C31.5767 28.0613 30.6595 28.3631 28.2453 27.2625C23.7422 25.2093 18.967 23.3041 13.8782 24.2745C9.38705 25.1265 10.8604 29.2979 13.8131 31.0138C15.7422 32.1321 16.5291 32.1203 18.6238 32.357C20.6712 32.5937 22.5351 33.9841 24.6653 34.2622C27.2689 34.5995 29.0678 33.3569 31.4761 33.2445C33.5885 33.1439 35.4169 34.9959 37.0323 36.1616C40.9259 38.9662 44.6951 41.7472 49.4053 43.0134C51.4881 43.5755 56.8255 45.1198 57.3284 41.8359C57.5592 40.3448 56.5355 38.4041 55.2219 37.7828C54.5592 37.4692 53.713 37.3154 52.997 37.5876C51.4704 38.1615 51.926 38.3923 52.3816 39.8774C47.7425 39.8774 43.4703 37.268 39.7661 34.6468C38.9673 34.0847 35.8016 32.4162 36.1033 31.1618C36.3874 29.9784 40.6714 28.6826 41.6359 28.227C44.2218 26.9963 45.4407 26.3927 48.2455 27.1619C50.7662 27.8542 53.2574 28.653 55.7663 29.363C60.074 30.5819 65.0386 31.1973 69.1037 28.6767C72.4765 26.5939 72.3759 21.7243 69.1747 19.5113ZM10.9492 13.9317C8.92551 14.0145 2.1207 13.1684 2.25679 10.2277C2.41064 7.00295 10.5823 7.37572 12.6829 7.57098C14.825 7.76624 16.8723 8.36976 18.9138 9.03246C20.5647 9.56498 23.8073 9.92592 23.7008 11.7661C19.5173 12.5708 15.2096 13.7542 10.9492 13.9317ZM17.6297 30.3275C15.9315 30.0376 11.5764 29.6115 13.0972 27.2507C14.4581 25.1383 17.9552 26.3276 19.831 26.7241C21.4759 27.0732 26.8961 27.937 26.6239 29.6825C23.7186 30.647 20.6475 30.8423 17.6297 30.3275ZM69.7901 24.5171C68.796 28.1796 62.5829 27.8069 59.8077 27.44C57.7012 27.156 55.642 26.5347 53.6065 25.943C52.7367 25.6886 51.1923 25.5821 50.5295 25.0496C49.7603 24.4283 49.9201 24.6768 49.9496 23.452C54.1745 22.3692 58.4705 20.8722 62.8255 20.4876C65.1569 20.2805 70.7842 20.8545 69.7901 24.5171Z" fill="#111111"/>
</svg>
