<svg width="344" height="44" viewBox="0 0 344 44" fill="none" xmlns="http://www.w3.org/2000/svg">
<path d="M69.1747 19.5113C65.796 17.1742 60.1214 17.9611 56.3935 18.7776C53.8491 19.3338 51.3461 20.0557 48.8313 20.7243C46.1034 21.4462 45.133 21.8189 42.7129 20.2391C38.8075 17.6889 34.9317 15.0796 31.05 12.4879C37.9554 10.0916 44.8608 7.7899 51.8727 5.70123C55.2456 4.69535 58.8728 3.18062 62.3699 2.76643C64.6599 2.50017 64.8019 3.47646 65.9557 5.21604C66.7072 6.35209 69.1866 8.55319 69.867 5.81365C70.2635 4.21608 68.1215 2.60667 67.009 1.80197C62.364 -1.55884 56.5296 0.926267 51.5946 2.50017C45.2573 4.52968 38.9614 6.68936 32.6477 8.8017C31.2571 9.26914 29.1033 10.3934 27.6239 10.1153C26.4464 9.89633 25.2156 8.86678 24.0795 8.36976C21.2333 7.13312 18.1682 6.51185 15.1327 5.93791C12.0735 5.36396 9.07344 4.89061 5.96689 5.47047C3.97279 5.84323 0.428368 6.51185 0.0733344 8.89637C-0.565726 13.1743 5.26274 15.831 8.6474 15.9375C11.7658 16.0381 15.0735 15.3517 18.1623 14.9494C20.8073 14.6062 24.1565 13.5826 26.8251 13.8488C29.2926 14.0973 31.6417 16.6239 33.6181 18.0676C36.1862 19.9433 38.7483 21.8367 41.3105 23.7183C38.8844 24.807 36.4643 25.9194 34.0264 26.9903C31.5767 28.0613 30.6595 28.3631 28.2453 27.2625C23.7422 25.2093 18.967 23.3041 13.8782 24.2745C9.38705 25.1265 10.8604 29.2979 13.8131 31.0138C15.7422 32.1321 16.5291 32.1203 18.6238 32.357C20.6712 32.5937 22.5351 33.9841 24.6653 34.2622C27.2689 34.5995 29.0678 33.3569 31.4761 33.2445C33.5885 33.1439 35.4169 34.9959 37.0323 36.1616C40.9259 38.9662 44.6951 41.7472 49.4053 43.0134C51.4881 43.5755 56.8255 45.1198 57.3284 41.8359C57.5592 40.3448 56.5355 38.4041 55.2219 37.7828C54.5592 37.4692 53.713 37.3154 52.997 37.5876C51.4704 38.1615 51.926 38.3923 52.3816 39.8774C47.7425 39.8774 43.4703 37.268 39.7661 34.6468C38.9673 34.0847 35.8016 32.4162 36.1033 31.1618C36.3874 29.9784 40.6714 28.6826 41.6359 28.227C44.2218 26.9963 45.4407 26.3927 48.2455 27.1619C50.7662 27.8542 53.2574 28.653 55.7663 29.363C60.074 30.5819 65.0386 31.1973 69.1037 28.6767C72.4765 26.5939 72.3759 21.7243 69.1747 19.5113ZM10.9492 13.9317C8.92551 14.0145 2.1207 13.1684 2.25679 10.2277C2.41064 7.00295 10.5823 7.37572 12.6829 7.57098C14.825 7.76624 16.8723 8.36976 18.9138 9.03246C20.5647 9.56498 23.8073 9.92592 23.7008 11.7661C19.5173 12.5708 15.2096 13.7542 10.9492 13.9317ZM17.6297 30.3275C15.9315 30.0376 11.5764 29.6115 13.0972 27.2507C14.4581 25.1383 17.9552 26.3276 19.831 26.7241C21.4759 27.0732 26.8961 27.937 26.6239 29.6825C23.7186 30.647 20.6475 30.8423 17.6297 30.3275ZM69.7901 24.5171C68.796 28.1796 62.5829 27.8069 59.8077 27.44C57.7012 27.156 55.642 26.5347 53.6065 25.943C52.7367 25.6886 51.1923 25.5821 50.5295 25.0496C49.7603 24.4283 49.9201 24.6768 49.9496 23.452C54.1745 22.3692 58.4705 20.8722 62.8255 20.4876C65.1569 20.2805 70.7842 20.8545 69.7901 24.5171Z" fill="#111111"/>
<path d="M94.9094 25.1758V32.1594H111.818V36.1657H90.9029V8.74612H110.201V12.7892H94.9094V21.096C95.6691 20.6549 96.5145 20.3609 97.4457 20.2138C98.1318 20.0913 99.014 20.0301 100.092 20.0301H106.084V24.1099H100.092C99.0875 24.1099 98.2054 24.1712 97.4457 24.2937C96.5145 24.4652 95.6691 24.7593 94.9094 25.1758ZM142.878 8.74612L131.373 36.1657H126.631L115.31 8.74612H119.647L129.02 31.6816L138.467 8.74612H142.878ZM152.03 25.1758V32.1594H168.939V36.1657H148.024V8.74612H167.321V12.7892H152.03V21.096C152.79 20.6549 153.635 20.3609 154.567 20.2138C155.253 20.0913 156.135 20.0301 157.213 20.0301H163.205V24.1099H157.213C156.209 24.1099 155.326 24.1712 154.567 24.2937C153.635 24.4652 152.79 24.7593 152.03 25.1758ZM176.18 12.6055L172.982 8.74612H178.165L195.772 29.6968V8.74612H199.815V36.1657H195.845L180.113 17.3102V36.1657H176.18V12.6055ZM228.302 12.7892H218.635V36.1657H214.739V12.7892H204.961V8.74612H228.302V12.7892ZM254.767 27.8222C254.767 29.611 254.228 31.2037 253.15 32.6005C252.096 33.9237 250.644 34.9528 248.794 35.6879C246.944 36.423 244.855 36.7906 242.527 36.7906C240.395 36.7906 238.325 36.2944 236.315 35.302C234.306 34.3096 232.615 32.9313 231.243 31.167L234.11 28.4838C236.487 31.3508 239.292 32.7842 242.527 32.7842C243.948 32.7842 245.247 32.6127 246.423 32.2697C247.722 31.8776 248.727 31.3263 249.437 30.6157C250.246 29.8315 250.65 28.9004 250.65 27.8222C250.65 26.5235 250.246 25.5434 249.437 24.8818C248.751 24.3182 247.734 23.9507 246.387 23.7791C245.602 23.6811 244.316 23.6321 242.527 23.6321C239.243 23.6321 236.738 23.0318 235.01 21.8311C233.283 20.6304 232.419 18.8661 232.419 16.5383C232.419 15.0681 232.854 13.6714 233.724 12.3482C234.594 11.025 235.788 9.97131 237.308 9.18719C238.876 8.35406 240.616 7.9375 242.527 7.9375C244.684 7.9375 246.632 8.2683 248.372 8.9299C250.234 9.64051 251.961 10.7554 253.554 12.2747L251.055 15.2151C249.56 14.0144 248.2 13.1752 246.975 12.6973C245.749 12.2195 244.267 11.9806 242.527 11.9806C241.522 11.9806 240.585 12.1889 239.715 12.6055C238.845 13.022 238.153 13.5795 237.638 14.2778C237.124 14.9762 236.866 15.7174 236.866 16.5015C236.866 18.6089 238.815 19.6625 242.711 19.6625C245.823 19.6625 248.286 19.9811 250.099 20.6182C251.814 21.2307 253.04 22.1619 253.775 23.4116C254.436 24.5142 254.767 25.9845 254.767 27.8222ZM269.728 20.8019C271.369 19.0867 272.852 17.1754 274.175 15.0681C275.498 12.9608 276.552 10.8534 277.336 8.74612H281.931C280.681 11.6621 279.162 14.4555 277.373 17.1264C275.756 19.5522 273.869 21.9414 271.712 24.2937V36.1657H267.743V24.2937C265.586 21.9414 263.699 19.5522 262.082 17.1264C260.293 14.4555 258.774 11.6621 257.524 8.74612H262.119C262.903 10.8534 263.957 12.9608 265.28 15.0681C266.603 17.1754 268.086 19.0867 269.728 20.8019ZM287.702 12.6055L284.504 8.74612H289.687L307.294 29.6968V8.74612H311.337V36.1657H307.367L291.635 17.3102V36.1657H287.702V12.6055ZM342.912 12.2747L340.338 15.2886C339.334 14.2595 338.133 13.4508 336.736 12.8627C335.339 12.2747 333.869 11.9806 332.325 11.9806C330.316 11.9806 328.484 12.4339 326.83 13.3406C325.176 14.2472 323.883 15.4846 322.952 17.0529C321.997 18.6946 321.519 20.5201 321.519 22.5294C321.519 24.4407 322.033 26.205 323.063 27.8222C324.043 29.3415 325.36 30.5483 327.014 31.4427C328.668 32.337 330.451 32.7842 332.362 32.7842C334.126 32.7842 335.768 32.4044 337.288 31.6448C338.807 30.8852 340.069 29.8315 341.074 28.4838L343.536 31.8286C342.14 33.3968 340.467 34.6159 338.519 35.4858C336.571 36.3556 334.506 36.7906 332.325 36.7906C329.605 36.7906 327.106 36.129 324.827 34.8058C322.597 33.5316 320.845 31.7796 319.571 29.5497C318.247 27.2709 317.586 24.7715 317.586 22.0516C317.586 19.4297 318.284 17.0161 319.681 14.8108C321.004 12.7035 322.799 11.0311 325.066 9.79365C327.333 8.55622 329.765 7.9375 332.362 7.9375C334.396 7.9375 336.332 8.32956 338.17 9.11368C339.959 9.84879 341.539 10.9024 342.912 12.2747Z" fill="#111111"/>
</svg>
